<svg xmlns="http://www.w3.org/2000/svg" xmlns:xlink="http://www.w3.org/1999/xlink" viewBox="0 0 252 252"><defs><style>.cls-1{fill:url(#linear-gradient);}.cls-2{fill:url(#radial-gradient);}</style><linearGradient id="linear-gradient" y1="126" x2="252" y2="126" gradientUnits="userSpaceOnUse"><stop offset="0" stop-color="#fefed5"/><stop offset="1" stop-color="#ffec85"/><stop offset="1" stop-color="#008a2e"/></linearGradient><radialGradient id="radial-gradient" cx="215" cy="145.79" r="217.7" gradientUnits="userSpaceOnUse"><stop offset="0" stop-color="#ff9234"/><stop offset="0.75" stop-color="#ffcd3c"/></radialGradient></defs><title>DoL Logo</title><g id="Layer_2" data-name="Layer 2"><rect class="cls-1" width="252" height="252"/></g><g id="Outline"><path class="cls-2" d="M67.13,165.61h0C69,150,77.52,135.68,89.68,125.89c21.43-17.28,51.18-17.29,71.85,1.17,19.05,17,26.85,44.32,21.84,69.08-.94-22.2-19.47-39.78-41.31-39.61-22.71.18-40.37,19.47-40.59,40-.24,22.26,20.14,35.09,21.21,35.74-56.28-4.79-99.6-51.68-100-106.21-.48-60.51,52-107.75,107.64-107.77,41.24,0,80,26,99.23,66.26-20.74-27.1-53.12-42.14-87.21-35.07C111,56,83.22,78.34,71,108A92.23,92.23,0,0,0,67.13,165.61Z"/></g></svg>